# xmcd CD database file
#
# Track frame offsets:
#	150
#	28867
#	45815
#	73055
#	92735
#	127847
#	153465
#	188082
#	217625
#	239815
#
# Disc length: 3601 seconds
#
# Revision: 0
# Processed by: cddbd v1.4PL0 Copyright (c) Steve Scherf et al.
# Submitted via: CDex 1.50
#
DISCID=7e0e0f0a
DTITLE=Sonny Clark - Somethin´ Special
DYEAR=1900
DGENRE=Jazz
TTITLE0=Somethin´ Special
TTITLE1=Two Bass Hit
TTITLE2=Tadd´s Delight
TTITLE3=I didn´t know what time it was
TTITLE4=Melody for C
TTITLE5=Eric Walks
TTITLE6=Voodoo
TTITLE7=Softly as in the morning sunrise
TTITLE8=I´ll remember april
TTITLE9=Deep in a dream
EXTD=
EXTT0=
EXTT1=
EXTT2=
EXTT3=
EXTT4=
EXTT5=
EXTT6=
EXTT7=
EXTT8=
EXTT9=
PLAYORDER=
